<svg id="svg" version="1.1" xmlns="http://www.w3.org/2000/svg" xmlns:xlink="http://www.w3.org/1999/xlink" width="400" height="400" viewBox="0, 0, 400,400"><g id="svgg"><path id="path0" d="M208.982 50.095 C 208.923 50.149,207.694 50.267,206.250 50.357 C 204.806 50.446,203.231 50.562,202.750 50.615 C 202.269 50.668,201.200 50.781,200.375 50.867 C 198.277 51.084,197.225 51.220,196.500 51.368 C 196.156 51.438,195.369 51.554,194.750 51.627 C 194.131 51.699,193.456 51.806,193.250 51.863 C 193.044 51.920,192.318 52.037,191.637 52.122 C 190.065 52.320,186.190 53.077,185.290 53.362 C 185.058 53.436,184.533 53.544,184.122 53.604 C 183.711 53.663,183.150 53.776,182.875 53.855 C 182.600 53.935,181.475 54.215,180.375 54.480 C 178.684 54.886,177.340 55.238,176.125 55.593 C 175.988 55.633,175.369 55.805,174.750 55.974 C 174.131 56.144,172.999 56.500,172.233 56.766 C 171.468 57.032,170.680 57.251,170.483 57.252 C 170.286 57.252,169.795 57.425,169.393 57.635 C 168.990 57.845,168.484 58.052,168.268 58.096 C 167.880 58.174,167.600 58.270,166.125 58.833 C 165.713 58.990,165.319 59.130,165.250 59.143 C 165.181 59.156,164.808 59.298,164.421 59.458 C 164.034 59.619,163.616 59.750,163.491 59.750 C 163.367 59.750,162.671 60.019,161.945 60.347 C 161.219 60.676,160.006 61.191,159.250 61.491 C 157.484 62.193,156.835 62.480,154.250 63.701 C 150.003 65.706,148.337 66.538,146.375 67.636 C 145.275 68.251,143.981 68.935,143.500 69.155 C 143.019 69.376,142.569 69.634,142.500 69.729 C 142.431 69.824,141.869 70.162,141.250 70.479 C 140.631 70.797,139.506 71.458,138.750 71.947 C 137.994 72.437,136.644 73.303,135.750 73.872 C 133.017 75.611,128.640 78.637,127.500 79.576 C 127.294 79.746,126.563 80.311,125.875 80.832 C 124.190 82.108,122.289 83.668,117.500 87.704 C 115.720 89.204,106.321 98.620,104.375 100.851 C 103.550 101.798,102.759 102.696,102.616 102.848 C 102.474 103.001,101.686 103.966,100.866 104.994 C 98.920 107.434,98.712 107.691,98.161 108.334 C 97.905 108.631,97.176 109.606,96.540 110.500 C 95.903 111.394,95.297 112.237,95.192 112.375 C 94.222 113.648,92.763 115.734,92.526 116.188 L 92.232 116.750 113.804 116.746 L 135.375 116.741 137.298 114.933 C 138.356 113.939,139.706 112.717,140.298 112.219 C 142.380 110.466,143.377 109.623,143.661 109.375 C 143.819 109.237,144.309 108.844,144.750 108.500 C 145.191 108.156,145.681 107.759,145.839 107.617 C 146.703 106.839,149.248 105.000,149.460 105.000 C 149.597 105.000,149.746 104.916,149.792 104.813 C 149.904 104.559,151.464 103.447,152.313 103.015 C 152.691 102.823,153.000 102.572,153.000 102.458 C 153.000 102.343,153.120 102.250,153.267 102.250 C 153.413 102.250,153.891 101.997,154.329 101.687 C 154.767 101.377,155.350 100.991,155.625 100.828 C 161.382 97.420,161.461 97.376,164.938 95.581 C 166.623 94.711,168.104 94.000,168.229 94.000 C 168.354 94.000,169.647 93.438,171.101 92.750 C 172.555 92.063,173.908 91.500,174.107 91.500 C 174.307 91.500,174.530 91.403,174.604 91.284 C 174.677 91.166,175.274 90.923,175.931 90.746 C 176.588 90.568,177.238 90.344,177.375 90.248 C 177.683 90.032,182.006 88.622,184.375 87.965 C 186.256 87.444,186.427 87.393,187.000 87.197 C 188.229 86.775,194.221 85.497,197.250 85.011 C 198.144 84.867,199.156 84.701,199.500 84.641 C 200.630 84.444,201.852 84.278,203.375 84.117 C 204.200 84.030,205.213 83.915,205.625 83.862 C 210.026 83.299,225.852 83.314,228.370 83.884 C 228.648 83.946,229.438 84.054,230.125 84.122 C 233.335 84.440,237.310 85.086,241.000 85.890 C 241.344 85.964,241.906 86.075,242.250 86.136 C 243.682 86.389,249.559 88.038,251.688 88.783 C 252.409 89.036,253.000 89.175,253.000 89.091 C 253.000 89.007,253.149 89.063,253.332 89.214 C 253.515 89.366,253.880 89.531,254.145 89.582 C 254.409 89.632,254.942 89.803,255.329 89.962 C 255.716 90.120,256.139 90.250,256.270 90.250 C 256.400 90.250,256.702 90.354,256.941 90.482 C 257.303 90.675,257.845 90.899,258.500 91.125 C 258.906 91.265,259.728 91.599,260.413 91.902 C 260.846 92.093,261.268 92.250,261.350 92.250 C 261.981 92.250,274.241 98.423,276.175 99.715 C 277.028 100.284,277.793 100.750,277.875 100.750 C 277.957 100.750,278.666 101.186,279.450 101.719 C 280.234 102.252,281.494 103.098,282.250 103.598 C 283.826 104.642,285.784 106.031,286.875 106.880 C 290.307 109.550,290.416 109.638,292.126 111.125 C 292.443 111.400,293.351 112.188,294.144 112.875 C 297.796 116.038,304.494 123.116,307.868 127.375 C 308.412 128.063,308.918 128.681,308.992 128.750 C 309.065 128.819,309.238 129.055,309.375 129.275 C 309.657 129.727,311.097 131.670,311.594 132.268 C 311.773 132.485,312.131 133.019,312.389 133.456 C 312.647 133.893,312.946 134.250,313.054 134.250 C 313.162 134.250,313.250 134.373,313.250 134.523 C 313.250 134.673,313.483 135.095,313.769 135.460 C 314.477 136.368,316.118 138.978,317.062 140.699 C 317.491 141.480,317.939 142.233,318.059 142.372 C 318.626 143.031,324.250 154.421,324.250 154.909 C 324.250 154.986,324.430 155.460,324.650 155.962 C 325.931 158.881,326.750 161.038,326.750 161.493 C 326.750 161.717,326.859 162.009,326.993 162.143 C 327.126 162.276,327.276 162.608,327.326 162.880 C 327.376 163.152,327.684 164.219,328.011 165.250 C 328.339 166.281,328.625 167.209,328.647 167.313 C 328.669 167.416,328.710 167.528,328.738 167.563 C 328.786 167.623,328.825 167.768,329.091 168.875 C 329.423 170.264,329.988 172.278,330.091 172.446 C 330.156 172.550,330.277 173.094,330.361 173.654 C 330.444 174.214,330.614 175.027,330.739 175.461 C 330.863 175.895,330.913 176.250,330.849 176.250 C 330.785 176.250,330.836 176.447,330.962 176.688 C 331.088 176.928,331.258 177.688,331.340 178.375 C 331.421 179.063,331.606 180.244,331.750 181.000 C 331.894 181.756,332.071 182.881,332.143 183.500 C 332.215 184.119,332.319 184.906,332.374 185.250 C 332.429 185.594,332.545 186.606,332.633 187.500 C 332.720 188.394,332.836 189.463,332.889 189.875 C 333.411 193.895,333.411 206.105,332.889 210.125 C 332.836 210.537,332.720 211.606,332.633 212.500 C 332.545 213.394,332.429 214.406,332.374 214.750 C 332.319 215.094,332.212 215.938,332.135 216.625 C 332.059 217.313,331.887 218.438,331.753 219.125 C 331.619 219.813,331.442 220.769,331.358 221.250 C 331.080 222.855,331.029 223.122,330.909 223.625 C 330.843 223.900,330.709 224.662,330.612 225.318 C 330.514 225.974,330.335 226.573,330.213 226.648 C 330.091 226.723,330.042 226.865,330.102 226.963 C 330.163 227.062,329.990 227.926,329.717 228.884 C 329.258 230.496,329.123 231.001,328.880 232.000 C 328.829 232.206,328.766 232.403,328.738 232.438 C 328.710 232.472,328.670 232.584,328.648 232.688 C 328.495 233.422,326.116 240.450,325.844 240.972 C 325.656 241.331,325.502 241.767,325.502 241.941 C 325.500 242.260,325.402 242.490,324.661 243.914 C 324.435 244.347,324.250 244.821,324.250 244.967 C 324.250 245.551,319.847 254.596,318.210 257.375 C 317.643 258.337,317.054 259.352,316.902 259.629 C 316.750 259.905,316.372 260.485,316.063 260.917 C 315.753 261.349,315.500 261.784,315.500 261.884 C 315.500 261.984,315.106 262.613,314.625 263.283 C 314.144 263.953,313.750 264.562,313.750 264.636 C 313.750 264.742,311.834 267.441,310.564 269.125 C 310.460 269.263,310.039 269.825,309.629 270.375 C 309.219 270.925,308.690 271.600,308.453 271.875 C 308.217 272.150,307.708 272.783,307.324 273.282 C 304.490 276.958,298.580 283.175,294.521 286.750 C 293.507 287.644,292.159 288.850,291.526 289.430 C 290.893 290.011,290.307 290.489,290.224 290.493 C 290.141 290.497,289.782 290.770,289.426 291.100 C 288.544 291.917,283.271 295.842,282.516 296.244 C 282.181 296.422,281.787 296.666,281.641 296.787 C 281.234 297.122,278.142 299.137,277.735 299.333 C 277.537 299.428,277.076 299.701,276.712 299.940 C 275.134 300.974,272.346 302.489,268.500 304.403 C 264.846 306.221,263.808 306.706,261.250 307.793 C 260.906 307.939,260.430 308.158,260.191 308.279 C 259.952 308.401,259.613 308.500,259.437 308.500 C 259.261 308.500,258.696 308.726,258.181 309.002 C 257.666 309.278,257.049 309.542,256.810 309.589 C 256.571 309.635,256.058 309.803,255.671 309.962 C 255.284 310.120,254.825 310.250,254.650 310.250 C 254.476 310.250,254.255 310.328,254.159 310.424 C 254.064 310.520,253.838 310.619,253.658 310.646 C 253.477 310.672,252.665 310.920,251.852 311.197 C 251.040 311.473,249.869 311.836,249.250 312.004 C 248.631 312.171,247.844 312.407,247.500 312.529 C 246.687 312.816,243.339 313.675,242.375 313.843 C 241.963 313.915,241.344 314.031,241.000 314.100 C 240.656 314.170,240.037 314.286,239.625 314.358 C 239.213 314.430,238.557 314.558,238.168 314.643 C 237.779 314.729,237.217 314.841,236.918 314.892 C 236.619 314.944,236.094 315.037,235.750 315.100 C 235.406 315.162,234.569 315.284,233.889 315.371 C 233.210 315.459,232.591 315.569,232.514 315.616 C 232.438 315.663,231.531 315.782,230.500 315.880 C 229.469 315.978,228.287 316.096,227.875 316.142 C 224.009 316.577,213.408 316.735,209.375 316.418 C 208.137 316.321,206.338 316.178,205.375 316.102 C 203.794 315.976,200.918 315.624,199.625 315.400 C 199.350 315.352,198.619 315.231,198.000 315.131 C 195.740 314.767,196.054 314.823,193.750 314.366 C 193.023 314.221,192.231 314.052,191.438 313.872 C 191.128 313.802,190.537 313.684,190.125 313.609 C 189.713 313.535,188.787 313.304,188.067 313.096 C 187.348 312.888,186.673 312.711,186.567 312.704 C 186.462 312.696,186.094 312.581,185.750 312.447 C 185.406 312.313,184.844 312.155,184.500 312.095 C 184.156 312.035,183.706 311.916,183.500 311.830 C 183.294 311.744,183.012 311.648,182.875 311.616 C 181.955 311.402,177.581 309.884,177.387 309.712 C 177.257 309.595,177.011 309.500,176.841 309.500 C 176.671 309.500,176.216 309.380,175.829 309.232 C 175.442 309.085,175.069 308.967,175.000 308.970 C 174.931 308.973,174.622 308.810,174.313 308.607 C 174.003 308.404,173.750 308.310,173.750 308.398 C 173.750 308.486,173.473 308.376,173.134 308.154 C 172.795 307.932,172.405 307.750,172.267 307.750 C 172.129 307.750,171.112 307.308,170.008 306.769 C 168.904 306.229,168.000 305.835,168.000 305.893 C 168.000 306.006,162.526 303.216,160.938 302.294 C 158.939 301.134,158.084 300.644,157.000 300.034 C 156.381 299.685,155.838 299.310,155.792 299.200 C 155.746 299.090,155.602 299.000,155.471 299.000 C 154.985 299.000,147.946 294.166,146.557 292.877 C 146.184 292.532,145.795 292.250,145.690 292.250 C 145.586 292.250,145.299 292.049,145.054 291.804 C 144.809 291.559,143.544 290.500,142.242 289.450 C 140.940 288.400,138.863 286.580,137.625 285.405 L 135.375 283.270 113.804 283.260 L 92.232 283.250 92.526 283.813 C 92.787 284.312,94.606 286.894,95.244 287.669 C 95.377 287.831,95.955 288.648,96.529 289.484 C 97.103 290.320,97.816 291.256,98.114 291.565 C 98.411 291.873,99.209 292.856,99.887 293.750 C 100.565 294.644,101.310 295.600,101.544 295.875 C 102.664 297.191,103.141 297.742,104.457 299.234 C 105.237 300.120,106.325 301.315,106.875 301.891 C 107.425 302.467,108.332 303.430,108.891 304.031 C 111.208 306.524,117.094 312.051,119.508 314.000 C 120.105 314.481,120.910 315.169,121.298 315.529 C 121.686 315.889,122.297 316.395,122.655 316.654 C 123.013 316.913,123.434 317.238,123.590 317.377 C 124.164 317.883,125.425 318.888,126.099 319.375 C 126.479 319.650,127.091 320.129,127.458 320.439 C 127.825 320.749,128.322 321.066,128.563 321.143 C 128.803 321.221,129.000 321.386,129.000 321.510 C 129.000 321.635,129.366 321.924,129.813 322.153 C 130.259 322.382,130.681 322.650,130.750 322.747 C 130.819 322.845,131.280 323.195,131.776 323.525 C 135.443 325.968,137.553 327.338,138.000 327.567 C 138.206 327.672,138.881 328.093,139.500 328.502 C 140.119 328.910,141.075 329.471,141.625 329.748 C 142.175 330.025,143.019 330.490,143.500 330.782 C 146.015 332.309,155.825 337.250,156.341 337.250 C 156.408 337.250,157.287 337.629,158.294 338.092 C 159.301 338.555,160.406 339.019,160.750 339.122 C 161.094 339.226,161.488 339.391,161.625 339.488 C 161.762 339.585,162.438 339.861,163.125 340.101 C 163.813 340.342,164.600 340.635,164.875 340.752 C 165.150 340.869,165.994 341.155,166.750 341.388 C 167.506 341.621,168.631 342.010,169.250 342.253 C 170.330 342.677,172.002 343.198,176.875 344.627 C 179.795 345.484,179.710 345.463,180.875 345.644 C 181.425 345.729,181.959 345.851,182.062 345.914 C 182.247 346.028,182.701 346.133,184.125 346.391 C 184.537 346.466,185.325 346.639,185.875 346.776 C 186.425 346.912,187.269 347.082,187.750 347.153 C 188.231 347.223,188.963 347.380,189.375 347.500 C 189.787 347.620,190.631 347.782,191.250 347.860 C 191.869 347.937,192.656 348.061,193.000 348.134 C 193.711 348.286,198.684 348.934,200.750 349.144 C 201.506 349.221,202.491 349.328,202.939 349.381 C 205.737 349.713,210.333 349.871,217.000 349.864 C 223.939 349.857,226.080 349.775,230.625 349.338 C 231.450 349.259,232.463 349.166,232.875 349.132 C 234.018 349.038,236.458 348.730,237.076 348.602 C 237.378 348.540,238.244 348.426,239.000 348.350 C 239.756 348.273,241.162 348.060,242.125 347.876 C 243.088 347.693,244.325 347.457,244.875 347.353 C 245.425 347.249,245.931 347.148,246.000 347.129 C 246.069 347.110,246.800 346.946,247.625 346.766 C 248.450 346.586,249.238 346.413,249.375 346.383 C 249.512 346.353,249.963 346.245,250.375 346.144 C 250.787 346.042,251.969 345.755,253.000 345.506 C 256.733 344.604,264.307 342.357,266.250 341.575 C 266.456 341.492,266.774 341.394,266.957 341.356 C 267.140 341.319,267.477 341.205,267.707 341.103 C 267.937 341.002,268.181 340.904,268.250 340.888 C 268.319 340.871,268.600 340.735,268.875 340.587 C 269.150 340.438,269.825 340.181,270.375 340.015 C 270.925 339.850,271.600 339.612,271.875 339.485 C 273.485 338.745,277.720 336.930,278.250 336.754 C 279.566 336.316,291.976 329.892,292.250 329.508 C 292.319 329.411,293.049 328.965,293.872 328.517 C 295.156 327.817,303.142 322.623,303.500 322.254 C 303.817 321.927,305.736 320.500,305.857 320.500 C 305.933 320.500,306.192 320.340,306.435 320.144 C 306.677 319.948,308.053 318.851,309.493 317.706 C 310.933 316.562,312.298 315.456,312.526 315.250 C 312.754 315.044,313.165 314.706,313.439 314.500 C 315.741 312.766,326.687 302.051,329.000 299.266 C 329.619 298.522,330.350 297.671,330.625 297.377 C 330.900 297.083,331.571 296.287,332.117 295.608 C 332.662 294.930,333.170 294.319,333.246 294.250 C 333.471 294.045,334.588 292.644,335.125 291.894 C 335.400 291.509,335.742 291.066,335.885 290.910 C 336.222 290.540,337.768 288.470,338.250 287.741 C 338.456 287.430,338.991 286.685,339.438 286.085 C 339.884 285.486,340.250 284.894,340.250 284.769 C 340.250 284.644,340.342 284.504,340.454 284.458 C 340.752 284.336,346.000 276.244,346.000 275.906 C 346.000 275.860,346.578 274.821,347.284 273.598 C 347.990 272.376,349.571 269.350,350.797 266.875 C 352.023 264.400,353.245 261.942,353.513 261.414 C 353.781 260.885,354.000 260.362,354.000 260.251 C 354.000 260.140,354.435 259.110,354.966 257.962 C 355.498 256.814,356.075 255.425,356.249 254.875 C 356.423 254.325,356.647 253.762,356.746 253.625 C 356.846 253.488,357.234 252.475,357.609 251.375 C 357.984 250.275,358.445 249.032,358.633 248.614 C 358.821 248.195,359.098 247.305,359.248 246.636 C 359.397 245.967,359.597 245.297,359.691 245.147 C 359.784 244.998,359.885 244.762,359.915 244.625 C 359.974 244.353,361.075 240.384,361.649 238.375 C 361.846 237.688,362.060 236.900,362.125 236.625 C 362.189 236.350,362.423 235.401,362.645 234.516 C 362.866 233.632,363.090 232.675,363.144 232.391 C 363.198 232.107,363.302 231.594,363.375 231.250 C 363.448 230.906,363.561 230.344,363.626 230.000 C 363.691 229.656,363.855 228.813,363.992 228.125 C 364.199 227.078,364.820 223.491,365.117 221.625 C 365.195 221.134,365.489 218.978,365.646 217.750 C 366.310 212.542,366.553 207.786,366.553 200.000 C 366.553 192.214,366.309 187.560,365.606 181.875 C 365.470 180.779,365.449 180.645,364.895 177.375 C 364.685 176.137,364.455 174.638,364.382 174.043 C 364.309 173.448,364.195 172.716,364.127 172.418 C 364.060 172.119,363.954 171.594,363.890 171.250 C 363.827 170.906,363.715 170.344,363.641 170.000 C 363.566 169.656,363.323 168.531,363.100 167.500 C 362.877 166.469,362.489 164.866,362.238 163.938 C 361.987 163.009,361.845 162.250,361.922 162.250 C 361.998 162.250,361.950 162.109,361.813 161.938 C 361.602 161.671,361.304 160.493,361.229 159.625 C 361.217 159.488,361.115 159.262,361.001 159.125 C 360.888 158.988,360.712 158.425,360.610 157.875 C 360.509 157.325,360.162 156.172,359.840 155.313 C 359.518 154.453,359.300 153.750,359.356 153.750 C 359.411 153.750,359.234 153.159,358.961 152.438 C 358.689 151.716,358.435 151.012,358.396 150.875 C 358.358 150.738,358.197 150.308,358.038 149.921 C 357.880 149.534,357.750 149.126,357.750 149.015 C 357.750 148.903,357.470 148.179,357.128 147.405 C 356.785 146.631,356.505 145.941,356.505 145.873 C 356.506 145.804,356.336 145.341,356.128 144.843 C 355.920 144.346,355.750 143.829,355.750 143.696 C 355.750 143.562,355.593 143.154,355.402 142.789 C 355.068 142.154,354.637 141.216,353.545 138.750 C 352.305 135.950,347.346 126.263,346.506 125.000 C 346.369 124.794,346.071 124.287,345.844 123.875 C 345.239 122.775,340.089 114.792,339.231 113.625 C 338.827 113.075,338.146 112.119,337.718 111.500 C 336.595 109.877,332.381 104.573,330.875 102.886 C 330.600 102.578,329.813 101.681,329.125 100.893 C 327.340 98.847,326.489 97.931,323.882 95.250 C 320.208 91.471,313.859 85.683,310.750 83.279 C 310.131 82.801,309.466 82.251,309.273 82.058 C 309.079 81.864,308.516 81.447,308.023 81.130 C 307.529 80.813,306.900 80.344,306.625 80.087 C 306.350 79.831,305.800 79.397,305.402 79.123 C 305.005 78.849,304.371 78.400,303.993 78.125 C 303.615 77.850,302.140 76.848,300.715 75.899 C 299.291 74.950,298.069 74.100,298.000 74.011 C 297.931 73.922,297.427 73.573,296.879 73.237 C 295.493 72.386,295.287 72.266,293.080 71.031 C 292.005 70.430,290.956 69.794,290.750 69.619 C 290.187 69.141,282.346 65.102,279.625 63.889 C 278.800 63.521,277.563 62.954,276.875 62.630 C 275.133 61.808,273.827 61.250,273.647 61.250 C 273.563 61.250,273.018 61.035,272.435 60.772 C 271.852 60.509,270.925 60.157,270.375 59.989 C 269.825 59.822,269.262 59.602,269.125 59.501 C 268.896 59.332,260.864 56.568,260.000 56.361 C 259.794 56.311,259.006 56.089,258.250 55.866 C 257.494 55.643,256.389 55.360,255.796 55.235 C 255.202 55.111,254.612 54.944,254.484 54.865 C 254.258 54.726,253.784 54.603,252.500 54.352 C 252.156 54.285,251.687 54.174,251.457 54.105 C 251.228 54.036,250.834 53.937,250.582 53.885 C 250.331 53.834,249.563 53.660,248.875 53.500 C 246.849 53.028,246.672 52.992,245.625 52.854 C 245.075 52.781,244.344 52.624,244.000 52.505 C 243.656 52.386,242.419 52.163,241.250 52.008 C 240.081 51.854,238.787 51.672,238.375 51.603 C 237.963 51.534,237.063 51.422,236.375 51.353 C 235.688 51.285,234.563 51.125,233.875 50.998 C 233.188 50.870,231.781 50.696,230.750 50.610 C 229.719 50.524,228.313 50.401,227.625 50.336 C 226.006 50.182,209.122 49.964,208.982 50.095 M115.721 134.063 C 115.361 134.372,114.699 134.906,114.250 135.250 C 113.801 135.594,113.238 136.044,113.000 136.250 C 112.762 136.456,112.199 136.906,111.750 137.250 C 111.301 137.594,110.738 138.044,110.500 138.250 C 110.262 138.456,109.699 138.906,109.250 139.250 C 108.801 139.594,108.238 140.044,108.000 140.250 C 107.762 140.456,107.199 140.906,106.750 141.250 C 106.301 141.594,105.738 142.044,105.500 142.250 C 105.262 142.456,104.699 142.906,104.250 143.250 C 103.801 143.594,103.238 144.044,103.000 144.250 C 102.762 144.456,102.199 144.906,101.750 145.250 C 101.301 145.594,100.738 146.044,100.500 146.250 C 100.262 146.456,99.699 146.906,99.250 147.250 C 98.801 147.594,98.238 148.044,98.000 148.250 C 97.762 148.456,97.199 148.906,96.750 149.250 C 96.301 149.594,95.738 150.044,95.500 150.250 C 95.262 150.456,94.699 150.906,94.250 151.250 C 93.801 151.594,93.238 152.044,93.000 152.250 C 92.762 152.456,92.199 152.906,91.750 153.250 C 91.301 153.594,90.738 154.044,90.500 154.250 C 90.262 154.456,89.699 154.906,89.250 155.250 C 88.801 155.594,88.238 156.044,88.000 156.250 C 87.762 156.456,87.199 156.906,86.750 157.250 C 86.301 157.594,85.738 158.044,85.500 158.250 C 85.262 158.456,84.699 158.906,84.250 159.250 C 83.801 159.594,83.238 160.044,83.000 160.250 C 82.762 160.456,82.199 160.906,81.750 161.250 C 81.301 161.594,80.738 162.044,80.500 162.250 C 80.262 162.456,79.699 162.906,79.250 163.250 C 78.801 163.594,78.238 164.044,78.000 164.250 C 77.762 164.456,77.199 164.906,76.750 165.250 C 76.301 165.594,75.738 166.044,75.500 166.250 C 75.262 166.456,74.699 166.906,74.250 167.250 C 73.801 167.594,73.238 168.044,73.000 168.250 C 72.762 168.456,72.199 168.906,71.750 169.250 C 71.301 169.594,70.738 170.044,70.500 170.250 C 70.262 170.456,69.742 170.874,69.346 171.179 C 68.407 171.900,67.308 172.779,66.756 173.250 C 66.514 173.456,65.949 173.906,65.500 174.250 C 65.051 174.594,64.488 175.044,64.250 175.250 C 64.012 175.456,63.449 175.906,63.000 176.250 C 62.551 176.594,61.988 177.044,61.750 177.250 C 61.512 177.456,60.949 177.906,60.500 178.250 C 60.051 178.594,59.488 179.044,59.250 179.250 C 59.012 179.456,58.449 179.906,58.000 180.250 C 57.551 180.594,56.988 181.044,56.750 181.250 C 56.512 181.456,55.949 181.906,55.500 182.250 C 55.051 182.594,54.488 183.044,54.250 183.250 C 54.012 183.456,53.449 183.906,53.000 184.250 C 52.551 184.594,51.988 185.044,51.750 185.250 C 51.512 185.456,50.949 185.906,50.500 186.250 C 50.051 186.594,49.488 187.044,49.250 187.250 C 49.012 187.456,48.449 187.906,48.000 188.250 C 47.551 188.594,46.988 189.044,46.750 189.250 C 46.512 189.456,45.949 189.906,45.500 190.250 C 45.051 190.594,44.488 191.044,44.250 191.250 C 44.012 191.456,43.449 191.906,43.000 192.250 C 42.551 192.594,41.988 193.044,41.750 193.250 C 41.512 193.456,40.949 193.906,40.500 194.250 C 40.051 194.594,39.488 195.044,39.250 195.250 C 39.012 195.456,38.449 195.906,38.000 196.250 C 37.551 196.594,36.988 197.044,36.750 197.250 C 36.512 197.456,35.949 197.906,35.500 198.250 C 35.051 198.594,34.389 199.128,34.029 199.438 L 33.375 200.000 34.029 200.563 C 34.389 200.872,35.051 201.406,35.500 201.750 C 35.949 202.094,36.512 202.544,36.750 202.750 C 36.988 202.956,37.551 203.406,38.000 203.750 C 38.449 204.094,39.012 204.544,39.250 204.750 C 39.488 204.956,40.051 205.406,40.500 205.750 C 40.949 206.094,41.512 206.544,41.750 206.750 C 41.988 206.956,42.551 207.406,43.000 207.750 C 43.449 208.094,44.012 208.544,44.250 208.750 C 44.488 208.956,45.051 209.406,45.500 209.750 C 45.949 210.094,46.512 210.544,46.750 210.750 C 46.988 210.956,47.551 211.406,48.000 211.750 C 48.449 212.094,49.012 212.544,49.250 212.750 C 49.488 212.956,50.051 213.406,50.500 213.750 C 50.949 214.094,51.512 214.544,51.750 214.750 C 51.988 214.956,52.551 215.406,53.000 215.750 C 53.449 216.094,54.012 216.544,54.250 216.750 C 54.488 216.956,55.051 217.406,55.500 217.750 C 55.949 218.094,56.512 218.544,56.750 218.750 C 56.988 218.956,57.551 219.406,58.000 219.750 C 58.449 220.094,59.012 220.544,59.250 220.750 C 59.488 220.956,60.051 221.406,60.500 221.750 C 60.949 222.094,61.512 222.544,61.750 222.750 C 61.988 222.956,62.551 223.406,63.000 223.750 C 63.449 224.094,64.012 224.544,64.250 224.750 C 64.488 224.956,65.051 225.406,65.500 225.750 C 65.949 226.094,66.512 226.544,66.750 226.750 C 66.988 226.956,67.551 227.406,68.000 227.750 C 68.449 228.094,69.012 228.544,69.250 228.750 C 69.488 228.956,70.051 229.406,70.500 229.750 C 70.949 230.094,71.512 230.544,71.750 230.750 C 71.988 230.956,72.551 231.406,73.000 231.750 C 73.449 232.094,74.012 232.544,74.250 232.750 C 74.488 232.956,75.051 233.406,75.500 233.750 C 75.949 234.094,76.512 234.544,76.750 234.750 C 76.988 234.956,77.551 235.406,78.000 235.750 C 78.449 236.094,79.012 236.544,79.250 236.750 C 79.488 236.956,80.051 237.406,80.500 237.750 C 80.949 238.094,81.512 238.544,81.750 238.750 C 81.988 238.956,82.551 239.406,83.000 239.750 C 83.449 240.094,84.012 240.544,84.250 240.750 C 84.488 240.956,85.051 241.406,85.500 241.750 C 85.949 242.094,86.512 242.544,86.750 242.750 C 86.988 242.956,87.551 243.406,88.000 243.750 C 88.449 244.094,89.012 244.544,89.250 244.750 C 89.488 244.956,90.051 245.406,90.500 245.750 C 90.949 246.094,91.512 246.544,91.750 246.750 C 91.988 246.956,92.551 247.406,93.000 247.750 C 93.449 248.094,94.012 248.544,94.250 248.750 C 94.488 248.956,95.051 249.406,95.500 249.750 C 95.949 250.094,96.512 250.544,96.750 250.750 C 96.988 250.956,97.508 251.374,97.904 251.679 C 98.843 252.400,99.942 253.279,100.494 253.750 C 100.736 253.956,101.301 254.406,101.750 254.750 C 102.199 255.094,102.762 255.544,103.000 255.750 C 103.238 255.956,103.801 256.406,104.250 256.750 C 104.699 257.094,105.262 257.544,105.500 257.750 C 105.738 257.956,106.301 258.406,106.750 258.750 C 107.199 259.094,107.762 259.544,108.000 259.750 C 108.238 259.956,108.801 260.406,109.250 260.750 C 109.699 261.094,110.262 261.544,110.500 261.750 C 110.738 261.956,111.301 262.406,111.750 262.750 C 112.199 263.094,112.762 263.544,113.000 263.750 C 113.238 263.956,113.801 264.406,114.250 264.750 C 114.699 265.094,115.361 265.628,115.721 265.937 C 116.081 266.246,116.459 266.500,116.563 266.500 C 116.666 266.500,116.750 255.306,116.750 241.625 L 116.750 216.750 183.375 216.750 L 250.000 216.750 250.000 200.000 L 250.000 183.250 183.375 183.250 L 116.750 183.250 116.750 158.375 C 116.750 144.694,116.666 133.500,116.563 133.500 C 116.459 133.500,116.081 133.754,115.721 134.063 " stroke="none" fill="#048c7c" fill-rule="evenodd"></path><path id="path1" d="M214.813 83.422 C 215.053 83.485,215.447 83.485,215.688 83.422 C 215.928 83.359,215.731 83.308,215.250 83.308 C 214.769 83.308,214.572 83.359,214.813 83.422 M110.618 94.063 L 108.875 95.875 110.688 94.132 C 112.371 92.513,112.614 92.250,112.431 92.250 C 112.393 92.250,111.577 93.066,110.618 94.063 M366.572 197.875 C 366.573 198.563,366.622 198.814,366.679 198.434 C 366.737 198.054,366.735 197.492,366.676 197.184 C 366.617 196.877,366.570 197.188,366.572 197.875 M366.572 202.125 C 366.573 202.813,366.622 203.064,366.679 202.684 C 366.737 202.304,366.735 201.742,366.676 201.434 C 366.617 201.127,366.570 201.438,366.572 202.125 M111.000 306.375 C 111.747 307.131,112.414 307.750,112.483 307.750 C 112.552 307.750,111.997 307.131,111.250 306.375 C 110.503 305.619,109.836 305.000,109.767 305.000 C 109.698 305.000,110.253 305.619,111.000 306.375 M322.609 306.063 L 321.875 306.875 322.688 306.141 C 323.445 305.456,323.615 305.250,323.422 305.250 C 323.379 305.250,323.013 305.616,322.609 306.063 M214.813 316.672 C 215.053 316.735,215.447 316.735,215.688 316.672 C 215.928 316.609,215.731 316.558,215.250 316.558 C 214.769 316.558,214.572 316.609,214.813 316.672 " stroke="none" fill="#04847c" fill-rule="evenodd"></path><path id="path2" d="" stroke="none" fill="#23f00c" fill-rule="evenodd"></path><path id="path3" d="" stroke="none" fill="#23f00c" fill-rule="evenodd"></path><path id="path4" d="" stroke="none" fill="#23f00c" fill-rule="evenodd"></path></g></svg>